Coordinates
version=1
nRows=10
nColumns=40
inDegrees=yes

Units are S.I. units (second, meters, Newtons, ...)
Angles are in degrees.

endheader
time	pelvis_tilt	pelvis_list	pelvis_rotation	pelvis_tx	pelvis_ty	pelvis_tz	hip_flexion_r	hip_adduction_r	hip_rotation_r	knee_angle_r	knee_angle_r_beta	ankle_angle_r	subtalar_angle_r	mtp_angle_r	hip_flexion_l	hip_adduction_l	hip_rotation_l	knee_angle_l	knee_angle_l_beta	ankle_angle_l	subtalar_angle_l	mtp_angle_l	lumbar_extension	lumbar_bending	lumbar_rotation	arm_flex_r	arm_add_r	arm_rot_r	elbow_flex_r	pro_sup_r	wrist_flex_r	wrist_dev_r	arm_flex_l	arm_add_l	arm_rot_l	elbow_flex_l	pro_sup_l	wrist_flex_l	wrist_dev_l
     26.61250000	     -1.85449161	     -6.58453607	     -2.20405711	      1.10665027	      0.92535761	      0.50741883	     17.27320548	      4.22792375	    -12.03894239	     20.19894044	     20.19894044	      7.37258818	      1.38681437	     -5.44019026	     10.82768164	    -13.31463053	     -2.91106218	     43.52891230	     43.52891230	     14.82259097	    -17.82801363	      0.40249966	    -10.24863836	      7.67776268	      2.27721362	     -0.69907043	    -13.79421498	     -7.25878408	     29.99817076	     46.41152356	      0.00000000	      0.00000000	     17.27806559	    -12.78396112	     -7.87338294	     56.97291176	     46.96874583	      0.00000000	      0.00000000
     26.62600000	     -1.72543838	     -6.68864342	     -1.88517617	      1.10692034	      0.92555177	      0.50982982	     16.75831661	      4.42891076	    -12.29708619	     20.26349822	     20.26349822	      7.84391290	      1.41631573	     -5.58406234	     12.72478451	    -13.74328307	     -2.07429632	     47.19885172	     47.19885172	     13.58774265	    -18.17747524	      0.76414075	    -10.26694057	      7.74517398	      2.28372696	      0.76095344	    -13.98456062	     -7.23965847	     30.74611327	     46.38902542	      0.00000000	      0.00000000	     16.28655598	    -12.37662085	     -7.79146482	     55.68659399	     46.93688539	      0.00000000	      0.00000000
     26.63950000	     -1.64615285	     -6.61135352	     -1.57706564	      1.10701416	      0.92583703	      0.51185016	     16.31686688	      4.40501182	    -12.54943347	     20.35974309	     20.35974309	      8.35517345	      1.53321830	     -5.58927016	     14.76915810	    -13.76110912	     -1.06431232	     50.82667433	     50.82667433	     13.96437049	    -18.06520652	      5.62167305	    -10.15419113	      7.68388695	      2.50730843	      1.91469004	    -14.38784065	     -6.29735010	     32.04567629	     46.26009159	      0.00000000	      0.00000000	     16.34804995	    -11.47900524	     -8.64744307	     51.64341019	     46.95470623	      0.00000000	      0.00000000
     26.65300000	     -1.47327721	     -6.64348104	     -1.27318556	      1.10712005	      0.92625147	      0.51391597	     15.67771773	      4.55405017	    -12.71148426	     20.27403992	     20.27403992	      8.77950717	      1.53192414	     -5.69408901	     16.46626570	    -14.03019433	     -0.41997765	     53.63075912	     53.63075912	     12.82191208	    -18.24155532	      5.96858497	    -10.28027883	      7.67417370	      2.64628026	      3.44493230	    -14.65138224	     -6.28570397	     32.82668046	     46.23738132	      0.00000000	      0.00000000	     15.23388221	    -11.13448008	     -8.54004889	     50.59604389	     46.92088824	      0.00000000	      0.00000000
     26.66650000	     -1.33591835	     -6.57230986	     -0.98879497	      1.10701595	      0.92677459	      0.51570337	     15.09780601	      4.57333731	    -12.88391792	     20.19357533	     20.19357533	      9.09618066	      1.52994178	     -5.79056116	     18.21350502	    -14.06689649	      0.25722151	     56.13491671	     56.13491671	     12.85037630	    -18.17829352	      9.14179271	    -10.30231477	      7.58326035	      2.82657691	      4.93871037	    -15.09074410	     -5.35997874	     33.98341122	     46.12718842	      0.00000000	      0.00000000	     14.92641144	    -10.51916466	     -9.06825805	     47.30667095	     46.91704917	      0.00000000	      0.00000000
     26.68000000	     -1.22961697	     -6.53788071	     -0.69336935	      1.10685340	      0.92728813	      0.51747497	     14.48186254	      4.66399840	    -12.99748655	     19.97475122	     19.97475122	      9.39485165	      1.52955881	     -5.82131987	     19.80756714	    -14.25752035	      0.65629339	     57.86505323	     57.86505323	     12.08077300	    -18.26163990	      9.36383162	    -10.36658626	      7.49464478	      2.95352301	      6.54053378	    -15.40373775	     -5.37019261	     34.80884679	     46.10506226	      0.00000000	      0.00000000	     13.72658666	    -10.21757461	     -9.00022587	     46.19833140	     46.88438590	      0.00000000	      0.00000000
     26.69350000	     -1.15184776	     -6.48941246	     -0.36074848	      1.10651611	      0.92788618	      0.51903382	     13.87340688	      4.73477825	    -13.15324842	     19.67615602	     19.67615602	      9.62712776	      1.51026380	     -5.81373043	     21.35671866	    -14.42762133	      0.96660730	     59.01551413	     59.01551413	     11.61953106	    -18.31354073	      9.82073240	    -10.38290871	      7.42198582	      2.82589306	      8.33948939	    -15.59959715	     -5.27866035	     35.80802609	     46.07040758	      0.00000000	      0.00000000	     12.56554475	    -10.06595715	     -9.00617242	     44.44767283	     46.85327595	      0.00000000	      0.00000000
     26.70700000	     -1.06403021	     -6.33869023	     -0.06802319	      1.10607331	      0.92865427	      0.52039596	     13.25783619	      4.68487209	    -13.28520776	     19.36857891	     19.36857891	      9.81763845	      1.55484932	     -5.82410007	     22.77250752	    -14.48088520	      1.09349684	     59.59213285	     59.59213285	     11.82215104	    -18.29285216	     11.47204407	    -10.40711998	      7.24071376	      3.18644655	      9.84097956	    -16.18626736	     -4.22549355	     36.85092438	     45.96773771	      0.00000000	      0.00000000	     12.45426209	     -9.45230630	     -9.61573913	     40.63627440	     46.86625147	      0.00000000	      0.00000000
     26.72050000	     -0.99436568	     -6.26580649	      0.27828549	      1.10553437	      0.92939961	      0.52160885	     12.60060753	      4.72240621	    -13.49555396	     18.91930186	     18.91930186	      9.95678243	      1.62756651	     -5.74696815	     24.08309295	    -14.66629097	      1.09789611	     59.49353298	     59.49353298	     11.70997455	    -18.37254510	     11.66888427	    -10.47171759	      7.14469045	      3.08283092	     11.64815184	    -16.39448485	     -4.17931419	     37.99031150	     45.93060550	      0.00000000	      0.00000000	     11.17673531	     -9.31413667	     -9.66384777	     39.21802461	     46.84019583	      0.00000000	      0.00000000
     26.73400000	     -0.94921792	     -6.19267225	      0.63192681	      1.10489870	      0.93018150	      0.52265449	     11.95552958	      4.75161936	    -13.71482683	     18.42743219	     18.42743219	     10.08878752	      1.80283294	     -5.67914661	     25.28242207	    -14.85171510	      0.99561436	     58.77912801	     58.77912801	     11.72064982	    -18.46586810	     11.93902252	    -10.52803053	      7.04772151	      3.01578624	     13.42337641	    -16.64080973	     -4.07593638	     39.10035310	     45.89172579	      0.00000000	      0.00000000	     10.02359606	     -9.14581518	     -9.68819334	     37.56412453	     46.81316999	      0.00000000	      0.00000000
